<svg aria-hidden="true" style="position: absolute; width: 0; height: 0; overflow: hidden;" version="1.1" xmlns="http://www.w3.org/2000/svg" xmlns:xlink="http://www.w3.org/1999/xlink">
<defs>
<symbol id="icon-scales" viewBox="0 0 32 32">
<path fill="#9f693d" style="fill: var(--color1, #9f693d)" d="M15.904 3.318s-0.3 2.32-3.094 3.094c-2.793 0.774-8.080 0-8.080 0l-0.897 0.824 0.512 0.572-0.068 0.18-3.277 8.682v0.107c0 1.181 0.516 2.14 1.272 2.75s1.723 0.894 2.684 0.895c0.961 0 1.93-0.285 2.686-0.895s1.271-1.568 1.271-2.75v-0.115l-0.043-0.105-3.434-8.414c1.497-0.188 5.054-0.534 7.219 0.096 1.441 0.419 2.259 1.272 2.715 1.998l-2.195 11.918 1.338 1.894c-1.109 0.484-2.037 1.552-2.348 3.209-3.505 0.387-5.967 1.296-5.967 2.355h19.492c0-1.059-2.462-1.968-5.967-2.355-0.307-1.663-1.223-2.757-2.324-3.244l1.313-1.859-2.211-12.012c0.466-0.705 1.274-1.503 2.654-1.904 2.185-0.635 5.788-0.276 7.26-0.090l-3.18 8.422-0.039 0.1v0.107c0 1.181 0.516 2.14 1.271 2.75s1.725 0.894 2.685 0.895c0.961 0 1.93-0.285 2.686-0.895s1.271-1.568 1.271-2.75v-0.115l-0.043-0.105-3.562-8.726 0.549-0.527-0.975-0.891s-5.285 0.774-8.078 0-3.096-3.094-3.096-3.094zM4.846 9.791l2.764 6.773h-5.322l2.559-6.773zM27.043 9.791l2.764 6.773h-5.324l2.56-6.773z"></path>
</symbol>
<symbol id="icon-handcuffs" viewBox="0 0 32 32">
<path fill="#9f693d" style="fill: var(--color1, #9f693d)" d="M9.213 1.252c-0.065-0-0.131 0.003-0.197 0.010-0.265 0.027-0.536 0.111-0.791 0.258-0.001 0-0.001-0-0.002 0l-1.861 1.076c-0.491 0.283-0.791 0.759-0.867 1.236s0.039 0.945 0.264 1.342c0.007 0.012 0.014 0.025 0.021 0.037l-0.732 2.514c-0.112 0.077-0.217 0.163-0.313 0.258-0.325 0.32-0.563 0.739-0.615 1.223s0.12 1.024 0.525 1.43l1.52 1.522c0.415 0.414 0.956 0.6 1.449 0.564 0.289-0.021 0.558-0.11 0.799-0.244l0.443 0.418c-0.144 0.186-0.256 0.406-0.322 0.652l-0.101 0.377 1.129 0.303 0.101-0.379c0.066-0.247 0.169-0.336 0.32-0.402 0.075-0.033 0.167-0.054 0.268-0.059s0.21 0.008 0.316 0.037c0.212 0.059 0.398 0.185 0.498 0.322s0.143 0.267 0.080 0.5l-0.102 0.377 1.129 0.303 0.102-0.377c0.147-0.548 0.020-1.098-0.264-1.488s-0.693-0.643-1.133-0.764c-0.22-0.061-0.45-0.089-0.682-0.078-0.104 0.005-0.209 0.018-0.313 0.039l-0.646-0.609c0.129-0.234 0.214-0.496 0.234-0.777 0.037-0.495-0.151-1.036-0.568-1.453l-1.521-1.519c-0.292-0.292-0.657-0.46-1.020-0.51l0.385-1.318c0.011 0.005 0.022 0.009 0.033 0.014 0.453 0.175 1.021 0.15 1.518-0.137l1.863-1.074c0.382-0.221 0.658-0.543 0.81-0.897l1.318 0.371c-0.055 0.234-0.070 0.481-0.031 0.73 0.075 0.48 0.379 0.959 0.875 1.246l1.863 1.076c0.238 0.137 0.488 0.217 0.736 0.248l0.205 1.15c-0.171 0.097-0.326 0.217-0.465 0.354-0.325 0.32-0.561 0.74-0.613 1.223s0.118 1.024 0.523 1.43l0.264 0.264 0.826-0.826-0.264-0.264c-0.181-0.181-0.207-0.315-0.189-0.478s0.117-0.361 0.273-0.516c0.157-0.154 0.361-0.254 0.529-0.271 0.021-0.002 0.043-0.003 0.063-0.004 0.141-0.004 0.261 0.034 0.41 0.184v0.002l0.264 0.262 0.824-0.824-0.262-0.264c-0.297-0.298-0.672-0.465-1.041-0.512l-0.203-1.143c0.308-0.181 0.554-0.442 0.729-0.74 0.234-0.401 0.345-0.884 0.252-1.371s-0.415-0.961-0.926-1.256l-1.861-1.074c-0.246-0.142-0.509-0.219-0.768-0.238s-0.513 0.019-0.738 0.106c-0.269 0.103-0.501 0.263-0.693 0.459l-1.818-0.512c-0.048-0.189-0.121-0.37-0.217-0.537-0.23-0.403-0.592-0.741-1.060-0.904-0.176-0.061-0.366-0.093-0.563-0.094zM9.201 2.412c0.066 0.002 0.128 0.016 0.189 0.037 0.163 0.057 0.327 0.197 0.432 0.381s0.145 0.398 0.111 0.57c-0.033 0.172-0.113 0.319-0.357 0.461-0.001 0-0.002-0-0.002 0l-1.861 1.074c-0.222 0.128-0.358 0.118-0.512 0.059-0.040-0.016-0.082-0.038-0.123-0.064l0.006-0.022-0.057-0.016c-0.096-0.074-0.186-0.175-0.254-0.295-0.109-0.191-0.152-0.415-0.125-0.582s0.088-0.287 0.297-0.408v-0.002l1.863-1.074c0.126-0.073 0.23-0.107 0.324-0.117 0.023-0.002 0.046-0.002 0.068-0.002zM14.156 3.889c0.019-0.001 0.039-0.002 0.059 0 0.080 0.006 0.165 0.033 0.27 0.094v0.002l1.863 1.074c0.253 0.146 0.331 0.293 0.363 0.463s-0.009 0.382-0.115 0.564c-0.107 0.183-0.271 0.323-0.438 0.381s-0.332 0.064-0.578-0.078l-1.863-1.076c-0.222-0.128-0.279-0.249-0.305-0.412s0.018-0.381 0.129-0.57c0.111-0.19 0.283-0.34 0.441-0.4 0.059-0.023 0.116-0.037 0.174-0.041zM6.146 8.539c0.14-0.004 0.259 0.036 0.408 0.186l1.522 1.519c0.206 0.206 0.243 0.368 0.23 0.541s-0.105 0.367-0.256 0.516c-0.15 0.149-0.346 0.243-0.521 0.256s-0.338-0.026-0.539-0.227l-1.519-1.519c-0.181-0.181-0.207-0.317-0.189-0.481s0.117-0.361 0.273-0.516c0.157-0.154 0.361-0.254 0.529-0.271 0.021-0.002 0.042-0.003 0.063-0.004zM20 9.367l-3.881 3.881 3.053 3.053 1.684-1.684 0.021 0.021c0.061-0.069 0.124-0.137 0.19-0.203 1.731-1.731 4.537-1.731 6.268 0 1.7 1.7 1.73 4.439 0.090 6.176-0 0.001-0.002 0.001-0.002 0.002-0.064 0.157-0.086 0.31-0.080 0.459 0.011 0.297 0.151 0.594 0.371 0.816s0.511 0.359 0.805 0.371c0.226 0.009 0.463-0.046 0.717-0.227 2.349-2.646 2.257-6.706-0.277-9.24-1.825-1.825-4.449-2.368-6.754-1.66l-0.336 0.104-0.248-0.248-1.619-1.621zM19.266 11.91l1.145 1.145-0.826 0.826-1.145-1.145 0.826-0.826zM7.607 14.91l-1.117 4.174 2.299 0.615-0.008 0.029c0.090 0.018 0.181 0.038 0.271 0.063 2.364 0.633 3.766 3.063 3.133 5.428-0.623 2.323-2.98 3.718-5.305 3.164-0.168 0.023-0.312 0.083-0.438 0.162-0.252 0.158-0.439 0.425-0.521 0.727s-0.057 0.624 0.080 0.885c0.105 0.2 0.272 0.38 0.557 0.51 3.465 0.71 6.935-1.4 7.863-4.861 0-0.001-0-0.001 0-0.002 0.667-2.492-0.174-5.036-1.939-6.678l-0.258-0.24 0.090-0.34 0.594-2.215-5.301-1.42zM17.586 16.365c-0.38 2.093 0.233 4.317 1.858 5.941 2.263 2.263 5.719 2.597 8.316 0.977-0.334-0.126-0.633-0.326-0.879-0.574-0.321-0.324-0.556-0.737-0.654-1.197-1.667 0.857-3.764 0.588-5.16-0.809-0.921-0.921-1.352-2.146-1.293-3.352l-0.602 0.602-0.412-0.414-1.174-1.174zM9.357 16.621l1.129 0.303-0.418 1.565-1.129-0.303 0.418-1.565zM5.641 17.742c-2.001 0.718-3.621 2.363-4.215 4.58-0.828 3.091 0.611 6.251 3.313 7.69-0.059-0.352-0.035-0.71 0.057-1.047 0.12-0.44 0.361-0.852 0.711-1.168-1.576-1.015-2.392-2.963-1.881-4.871 0.337-1.258 1.183-2.245 2.258-2.797l-0.258-0.068-0.564-0.152 0.15-0.564 0.43-1.602z"></path>
</symbol>
<symbol id="icon-hammer-drop" viewBox="0 0 32 32">
<path fill="#9f693d" style="fill: var(--color1, #9f693d)" d="M1.219 0.767c5.545 0.887 10.258 4.303 13.549 9.957-2.784-2.784-5.635-5.203-8.853-6.865 2.053 1.442 3.899 3.429 5.678 5.916-3.202-3.201-6.47-5.853-10.455-7.195v2.207c3.758 1.040 7.4 3.91 10.248 8.082l-0.008 0.004 1.387 2.4 9.871-5.699-1.387-2.4-0.004 0.002c-2.399-4.336-5.19-5.945-6.67-6.408h-2.67c3.922 1.408 6.586 4.356 8.361 8.892-3.132-4.387-7.657-7.721-12.666-8.893h-6.381zM10.842 3.297c3.262 1.347 6.121 4.16 6.928 7.6l-6.928-7.6zM21.781 11.416l-6.998 4.041 5.295 9.168 6.998-4.041-5.295-9.168zM26.342 13.514l-1.5 0.865 1.236 2.143 1.5-0.867-1.236-2.141zM15.82 19.588l-10.603 6.121 1.238 2.145 10.602-6.123-1.236-2.142zM29.096 20.764l-9.871 5.699 1.389 2.404 9.871-5.699-1.389-2.404zM3.92 25.801l-2.246 1.297 1.807 3.129 2.246-1.297-1.807-3.129z"></path>
</symbol>
<symbol id="icon-greek-temple" viewBox="0 0 32 32">
<path fill="#9f693d" style="fill: var(--color1, #9f693d)" d="M16 1.637l-12.75 6.8h25.5l-12.75-6.8zM4.563 9.563v0.875h22.875v-0.875h-22.875zM5.563 11.563v12.875h1.875v-12.875h-1.875zM11.896 11.563v12.875h1.875v-12.875h-1.875zM18.229 11.563v12.875h1.875v-12.875h-1.875zM24.563 11.563v12.875h1.875v-12.875h-1.875zM4.563 25.563v1.875h22.875v-1.875h-22.875zM2.563 28.563v1.875h26.875v-1.875h-26.875z"></path>
</symbol>
</defs>
</svg>
